<svg xmlns="http://www.w3.org/2000/svg" width="100" height="100" viewBox="0 0 362.54 370.05"><circle cx="162.5" cy="207.05" r="162.5" fill="#a300df"/><path d="M214.57,116.52q8.66-12.24,36.07-93a46.57,46.57,0,0,1-.56-6.7,9.1,9.1,0,0,1,.15-1.67l-1.67-.41q-.27,1.55-4.36,9.21l-.77-.14.14-1q.15-1.15,3.47-9.35l-1.8-.28q-11.46,20.58-14.32,20.55h-.13l1.32-2.43.55-2.57-1.8-.28-7.21,10.2-.77-.14V38l6.31-10.34.14-1-.77-.14a469.56,469.56,0,0,0-30.23,39.12q-31.76,37.81-60,91.37Q94.12,224.5,93.42,228.47l-.9-.14.14-20.85q.14-.76,8.82-25.11c-.51-.09-.76-.31-.76-.65h.39a.6.6,0,0,0,.65-.38l1-5.52,1.32-2.43c-.6-.1-.89-.32-.89-.66h.39a.6.6,0,0,0,.65-.38l2.09-12.07,1.58-3.46c-.6-.09-.89-.31-.89-.65a3.23,3.23,0,0,0,1.31-1.91l6.93-40.05,1.59-3.33c-.52-.09-.77-.26-.77-.52v-.13h.26a.6.6,0,0,0,.65-.38l.14-.51-.76-1.17h.39a.6.6,0,0,0,.65-.38v-.52l-.63-1.17H117a.6.6,0,0,0,.65-.38l1-5-.76-1.17.9.14a41.85,41.85,0,0,0,.6-6.3q.12-9.14-5.23-13.32a53.62,53.62,0,0,1-14.07-6.62l-.9-.27-1.81.23V72.9l-6.17-.59L86,55.77l-.77-.14-3.74.85L81.91,54,81,53.9h-.64A2.31,2.31,0,0,0,78,55.4c-.51-.09-.76-.26-.76-.52v-.13q-5.55.59-7.22,10.72l.63,1.17-.9-.14c0,3.34,0,6.52,0,9.52q-.23,17.76-1.62,25.72l.35,2.71a8.74,8.74,0,0,1-2.85,1.12q1,1.17.94,7.22-.15,12.1-4.55,43.83a23.1,23.1,0,0,1,.35,3v.26H62c-.34,0-.52.12-.52.38a23.92,23.92,0,0,1,.21,3.73,85.55,85.55,0,0,1-1.59,13.75l-.28,1.54.76,1.17h-.39c-.34,0-.52.12-.52.38l.63,1.17-.9-.14A4.07,4.07,0,0,0,60,183.5a15,15,0,0,0-1.6,4.35l-.28,1.54.63,1.17-.9-.14.48,2.71L56.42,204.3l.35,2.58h-.26c-.35,0-.56.12-.65.38a18.22,18.22,0,0,0-.29,2.7c0,.94.16,1.46.5,1.55q-3.75,21.57-4.17,53.74-.51,39.63,4.05,95.16l4,17.94,1.67.28.42-2.44.9.14c1.11.19,1.67.58,1.66,1.18v.13l-.56,3.08,1.67.28.28-1.54L67.33,377l2.43,1.45a4.06,4.06,0,0,0,1,.14A1.77,1.77,0,0,0,72.74,377a12.21,12.21,0,0,1,2.43,1.45l2.84-.48q9-10.31,26.15-42,15.6-32.35,48.34-106.45Q190.17,162.92,214.57,116.52Z" transform="translate(-24.85 -12.63)" fill="#fff" stroke="#000" stroke-miterlimit="10"/><path d="M375.41,117.72q-18,0-34.4-1.43h-2.57l-1.71.71v-.57a1.14,1.14,0,0,0-1.29-1.28c-.47,0-2,1-4.73,3q-6.56,0-11.27,10.28-17,18-56.8,89.63h-.71v-1.28q0-12.12,4.71-60.51a58.4,58.4,0,0,0,1.43-12q0-15.56-12.13-19.41L253.23,126h-.86l.14-.57h-4.14q-.44,0-3.57-2.43h-.86l-.57,2.43h-.71a2.45,2.45,0,0,0,.14-.71,3.06,3.06,0,0,0-.57-1.71q-2,0-6.42,7.28-14.43,17.83-35,68.36-20,28.69-45.67,87.92c.47,0,.71.14.71.43v.14q-5,9.27-9.28,24.26c.38,0,1.28,1,2.71,3l-.14.57c-1.61,0-2.52.42-2.71,1.28l-.14.57q3.85,3.71,3.85,5.28v.14q2.57-1,2.85-1.86c.85,0,1.42,1.24,1.71,3.71l3.57-1.28q1.29,0,8.85,4.85,1.56,0,7-2.43c1,0,1.43.34,1.43,1v.29q8-2.85,8.85-6.71,1.58-7.69,13.42-9.13l28.69-65.94h.86v.71q0,1.56.29,6,4.71,44.39,8.28,50.81h1.57l1.71-7.85h.86l-.71,7.28h.86c1.05,0,1.67-.42,1.86-1.28l.86-4.14,1.43-3.14h.86l2.28,1.28q4.29-1.29,4.57-2.43l1.57.57,1.71-.57v.29c0,.57.48.86,1.43.86q2.7-.86,2.85-1.71l4,.57q5-3.71,5.71-3.71,7.14-11,29.69-58.66h.86q-5.71,26.69-29.69,126.59,21.54-23,28.4-23a2.83,2.83,0,0,1,2.85,2.28h1.57l2.57-12.13h.86a38.83,38.83,0,0,0-1,8.28,18.21,18.21,0,0,0,2.28,9.42,3.35,3.35,0,0,0-.14,1q0,4.28,4.14,19a75.39,75.39,0,0,0,3.85,21.12h1.57l1-4.85.14-4.28h1.57q-.72,7.56-.86,8.56l-.14.57h1.57l14.27-67.79q25.39-116,51.95-196.81Q381,117.72,375.41,117.72Z" transform="translate(-24.85 -12.63)" fill="#fff" stroke="#000" stroke-miterlimit="10"/><path d="M19-39.3" transform="translate(-24.85 -12.63)"/><path d="M19-39.3" transform="translate(-24.85 -12.63)"/></svg>