<svg xmlns="http://www.w3.org/2000/svg" viewBox="0 0 165.3 53.8"><path d="M16.4 7.2c4.7 0 8.6 1.6 11.7 4.8s4.7 7.2 4.7 12-1.6 8.8-4.7 12-7 4.8-11.7 4.8H2.9V7.2h13.5zm0 26.2c2.7 0 4.8-.9 6.5-2.6 1.7-1.7 2.5-4 2.5-6.8s-.8-5.1-2.5-6.8c-1.7-1.7-3.8-2.6-6.5-2.6h-5.8v18.8h5.8zm28.6 0h13.5v7.4H37.2V7.2h21v7.4H45v5.6h12v7.3H45v5.9zm26 7.4L60 7.2h8.5L76 31.9l7.5-24.7H92L81 40.8H71zM94.7 7.2h7.7v33.6h-7.7V7.2zm29.7 34.3c-5.1 0-9.3-1.7-12.6-5-3.3-3.3-5-7.5-5-12.5s1.7-9.1 5-12.5c3.3-3.3 7.5-5 12.6-5 3 0 5.8.7 8.4 2.1 2.6 1.4 4.6 3.3 6.1 5.7l-6.7 3.8c-.7-1.3-1.8-2.3-3.2-3-1.4-.7-2.9-1.1-4.6-1.1-3 0-5.4.9-7.2 2.7-1.8 1.8-2.7 4.2-2.7 7.2s.9 5.4 2.7 7.2c1.8 1.8 4.2 2.7 7.2 2.7 1.7 0 3.3-.4 4.7-1.1s2.5-1.7 3.2-3l6.7 3.8c-1.5 2.4-3.5 4.3-6 5.7-2.7 1.6-5.5 2.3-8.6 2.3zm25.9-8.1h13.5v7.4h-21.3V7.2h21v7.4h-13.3v5.6h12.1v7.3h-12.1v5.9z"/></svg>