<svg xmlns="http://www.w3.org/2000/svg" viewBox="10 40 358.39 404.27"><circle cx="162.5" cy="272.07" r="162.5" fill="#a300df"/><path d="M225.95 45.98l1.8.28c-2.21 5.46-3.37 8.58-3.47 9.35l-.14 1.03.77.14c2.72-5.11 4.18-8.18 4.36-9.21l1.67.41c-.09.43-.14.99-.15 1.67-.02 1.63.16 3.86.56 6.7-18.28 53.82-30.3 84.81-36.07 92.97-16.27 30.93-36.96 68.59-62.07 112.97-21.83 49.4-37.94 84.88-48.34 106.45-11.43 21.13-20.14 35.13-26.15 42l-2.84.48c-1.28-.88-2.09-1.36-2.43-1.45-.19 1.11-.84 1.66-1.95 1.65-.34 0-.69-.05-1.03-.14l-2.43-1.45-1.32 2.43-.28 1.54-1.67-.28.56-3.08v-.13c.01-.6-.55-.99-1.66-1.18l-.9-.14-.42 2.44-1.67-.28-4.02-17.94c-3.04-37.02-4.39-68.74-4.05-95.16.28-21.44 1.67-39.36 4.17-53.74-.34-.09-.51-.61-.5-1.55.01-.69.1-1.58.29-2.7.09-.26.3-.38.65-.38h.26l-.35-2.58 1.95-11.17-.48-2.71.9.14-.63-1.17.28-1.54c.19-1.2.72-2.65 1.6-4.35-.42-.78-.63-1.34-.62-1.68l.9.14-.63-1.17c0-.26.18-.38.52-.38h.39l-.76-1.17.28-1.54c1.01-5.56 1.55-10.15 1.59-13.75.02-1.37-.05-2.62-.21-3.73 0-.26.18-.38.52-.38h.39v-.26c.01-.43-.11-1.42-.35-2.96 2.93-21.15 4.45-35.76 4.55-43.83.05-4.03-.26-6.44-.94-7.22.43.01 1.38-.37 2.85-1.12l-.35-2.71c.93-5.31 1.47-13.88 1.62-25.72.04-3 .04-6.18-.01-9.52l.9.14-.63-1.17c1.12-6.76 3.52-10.33 7.22-10.72v.13c0 .26.25.43.76.52.44-1.02 1.22-1.53 2.34-1.51l.64.01.9.14-.42 2.44 3.74-.85.77.14 5.19 16.54 6.17.59-.01.51 1.81-.23.9.27c4.17 2.8 8.86 5 14.07 6.62 3.57 2.79 5.31 7.23 5.23 13.32-.02 1.89-.22 3.99-.6 6.3l-.9-.14.76 1.17-.96 5.01c-.09.26-.31.38-.65.38h-.26l.63 1.17-.01.52c-.09.26-.31.38-.65.38h-.39l.76 1.17-.14.51c-.09.26-.31.38-.65.38h-.26v.13c0 .26.25.43.77.52l-1.59 3.33L89 187.07c-.18.77-.62 1.41-1.31 1.91 0 .34.29.56.89.65L87 193.09l-2.09 12.07c-.09.26-.31.38-.65.38l-.39-.01c0 .34.29.56.89.66l-1.32 2.43-.97 5.52c-.09.26-.31.38-.65.38h-.39c0 .34.25.56.76.65-5.79 16.23-8.73 24.6-8.82 25.11l-.14 20.85.9.14c.46-2.65 15.44-26.48 44.93-71.49 18.82-35.71 38.82-66.16 59.99-91.37 8.04-11.82 18.12-24.86 30.23-39.12l.77.14-.14 1.03-6.31 10.34-.01.51.77.14 7.21-10.2 1.8.28-.55 2.57-1.32 2.43h.13c1.91.01 6.68-6.83 14.32-20.55zM135.26 2.6l-.01 1.03-.52-.01.01-1.03.52.01zm180.89 145.35c.86 0 1.29.43 1.29 1.28v.57l1.71-.71h2.57c10.94.95 22.41 1.43 34.4 1.43 3.71 0 7.47-.05 11.28-.14-17.7 53.85-35.02 119.46-51.95 196.81l-14.27 67.79h-1.57l.14-.57c.09-.67.38-3.52.86-8.56h-1.57l-.14 4.28-1 4.85h-1.57c-2.09-5.8-3.38-12.85-3.85-21.12-2.76-9.8-4.14-16.13-4.14-18.98 0-.38.05-.71.14-1-1.52-2.57-2.28-5.71-2.28-9.42 0-2.48.33-5.23 1-8.28h-.86l-2.57 12.13h-1.57c-.48-1.52-1.43-2.28-2.85-2.28-4.57 0-14.04 7.66-28.4 22.98 15.98-66.6 25.88-108.8 29.69-126.59h-.86c-15.03 31.78-24.93 51.33-29.69 58.66-.48 0-2.38 1.24-5.71 3.71l-4-.57c-.1.57-1.05 1.14-2.85 1.71-.95 0-1.43-.29-1.43-.86v-.29l-1.71.57-1.57-.57c-.19.76-1.71 1.57-4.57 2.43l-2.28-1.28h-.86l-1.43 3.14-.86 4.14c-.19.86-.81 1.28-1.86 1.28h-.86l.71-7.28h-.86l-1.71 7.85h-1.57c-2.38-4.28-5.14-21.22-8.28-50.81-.19-2.95-.29-4.95-.29-5.99v-.71h-.86l-28.69 65.94c-7.9.95-12.37 4-13.42 9.13-.57 2.57-3.52 4.81-8.85 6.71v-.29c0-.66-.48-1-1.43-1-3.62 1.62-5.95 2.43-6.99 2.43-5.04-3.23-7.99-4.85-8.85-4.85l-3.57 1.28c-.29-2.47-.86-3.71-1.71-3.71-.19.57-1.14 1.19-2.85 1.86v-.14c0-1.05-1.28-2.81-3.85-5.28l.14-.57c.19-.86 1.1-1.28 2.71-1.28l.14-.57c-1.43-2-2.33-3-2.71-3 2.85-9.99 5.94-18.08 9.28-24.26v-.14c0-.29-.24-.43-.71-.43 17.13-39.48 32.35-68.79 45.67-87.92 13.7-33.68 25.35-56.47 34.97-68.36 2.95-4.85 5.09-7.28 6.42-7.28.38.57.57 1.14.57 1.71 0 .19-.05.43-.14.71h.71l.57-2.43h.86c2.09 1.62 3.28 2.43 3.57 2.43h4.14l-.14.57h.86l2.71-1.14c8.09 2.57 12.13 9.04 12.13 19.41 0 3.52-.48 7.52-1.43 11.99-3.14 32.26-4.71 52.43-4.71 60.51v1.28h.71c26.55-47.76 45.48-77.64 56.8-89.63 3.14-6.85 6.9-10.28 11.27-10.28 2.69-2 4.26-3 4.73-3z" fill="#fff" stroke="#000" stroke-miterlimit="10"/><path d="M131.55 5.56c1.05-.24 2.1-.44 3.17-.59.04-.01.45-.06.24-.03-.21.03.26-.03.3-.04.25-.03.5-.06.75-.08.54-.06 1.09-.1 1.64-.13.78-.05 1.54-.66 1.5-1.5-.03-.77-.66-1.55-1.5-1.5-2.32.14-4.63.47-6.89.99-.77.17-1.29 1.1-1.05 1.85.25.78 1.02 1.22 1.84 1.03z"/><path d="M130.36 5.71c.24-.11.49-.23.74-.33l-.36.15c.52-.22 1.06-.4 1.62-.48-.13.02-.27.04-.4.05.3-.04.6-.04.91 0a5.46 5.46 0 00-.4-.05c.25.04.48.1.72.19l-.36-.15c.1.04.2.09.29.15.04.02.08.05.12.08.13.07-.29-.26-.1-.08.03.03.18.21.21.21-.04 0-.23-.34-.09-.09.03.05.06.11.08.16l-.15-.36c.04.11.08.23.09.35a5.46 5.46 0 01-.05-.4c.01.07.01.14 0 .21.02-.13.04-.27.05-.4-.01.07-.03.13-.05.2l.15-.36c-.03.06-.14.23.01.03.08-.1.1-.12.04-.07-.08.08-.03.04.15-.11-.1.05-.2.13-.3.19-.28.19-.57.4-.8.65-.49.51-.82 1.1-1.06 1.76-.26.74.3 1.67 1.05 1.85.84.19 1.56-.26 1.85-1.05.03-.07.05-.14.08-.21l-.15.36c.08-.19.19-.36.3-.53.09-.12.06-.08-.1.12.03-.04.07-.08.1-.12.07-.08.14-.15.22-.22.04-.03.08-.07.12-.1-.2.15-.24.19-.12.1.09-.05.18-.11.26-.17.34-.22.6-.46.83-.79.83-1.2.16-2.75-.87-3.55-.81-.63-1.89-.92-2.91-.82-1.17.11-2.18.55-3.24 1.03-.32.15-.6.57-.69.9-.1.36-.05.84.15 1.16.21.32.51.6.9.69.42.09.78.02 1.16-.15z"/><path d="M131.62 5.56c1.55-.83 3.21-.97 4.89-.48l-.36-2.74c-1.08.74-2.15 1.49-3.23 2.23-.65.45-.99 1.32-.54 2.05-.15-.24-.4-.01-.66.08.27.96.53 1.93.8 2.89 1.47-.55 2.94-1.1 4.42-1.65-.56-.23-1.13-.46-1.69-.69l.18-.85c.75.43 1.5.86 2.26 1.3a5.37 5.37 0 011.19-2.75c1.2-1.47-.81-3.57-2.12-2.12-.88.98-1.51 2.02-2 3.24-.4 1 .83 2.26 1.85 1.85 2.68-1.11 4.86-3.01 6.1-5.67.56-1.19-.36-2.5-1.69-2.2-2.82.62-5.6 1.42-8.31 2.45-1.77.67-5.43 1.82-3.97 4.48 1.11 2.02 4.24 1.74 6.13 1.4 2.49-.44 4.79-1.74 6.54-3.56.56-.58.58-1.54 0-2.12-1.35-1.34-3.05-.79-4.63-.22-2.14.77-4.28 1.53-6.41 2.3-1.82.65-1.11 3.26.8 2.89 1.84-.35 3.51-1.42 4.54-2.99 1.08-1.63.68-3.56-1.29-4.19-1.86-.59-4.14-.36-6.02-.04-2.05.35-4.02 1.12-5.81 2.17-1.34.78-.68 2.7.76 2.8 3.86.25 7.66-.64 11.05-2.51 1.54-.85.46-3.08-1.16-2.74-3.09.65-6.02 1.84-8.68 3.53-1.19.75-.8 2.89.76 2.8 3.28-.19 6.53-.64 9.73-1.35-.27-.96-.53-1.93-.8-2.89-3.03 1.27-6.06 2.55-9.08 3.82.39.91.77 1.83 1.16 2.74 3.22-1.89 6.64-3.32 10.25-4.29-.49-.84-.97-1.67-1.46-2.51-.82 1.06-.93 2.33-.05 3.41 1.04 1.29 2.69 1.17 4.15.87 1.37-.28 3.2-.42 4.36-1.27 1.17-.86 1.31-2.41.47-3.56-.86-1.18-2.31-1.33-3.66-1.3-1.85.04-3.7.16-5.54.34-1.73.18-3.46.4-5.18.7-1.45.25-2.71.75-3.2 2.25-.26.79.3 1.61 1.05 1.85a29.172 29.172 0 0017.4-.05c1.64-.52 1.29-2.84-.4-2.95-5.21-.33-10.43.15-15.5 1.4-1.74.43-1.2 2.8.4 2.95 4.79.44 9.63-.23 14.11-1.97 1.31-.51 1.53-2.47 0-2.89-4.81-1.34-9.94.6-12.81 4.65-.53.74-.01 2.05.9 2.2 4.45.77 8.97 1.05 13.48.71 2.16-.16 4.31-.45 6.44-.86 1.95-.37 4.19-.69 5.97-1.6 1.45-.74 2.56-2.61 1.09-3.91-1.35-1.2-3.27-1.11-4.94-.88-4.34.6-8.52 1.9-12.49 3.74-1.45.67-.6 2.72.76 2.8 4.34.24 8.65-.06 12.92-.84 1.33-.24 1.38-2.11.36-2.74-3.86-2.39-8.96-1.2-11.58 2.41-.66.91.22 2.32 1.3 2.26 2.56-.16 5.1-.51 7.61-1.05 1.64-.36 1.29-3.03-.4-2.95-3.83.18-7.51 1.3-10.76 3.35-1.63 1.02-.13 3.62 1.51 2.59 2.8-1.76 5.93-2.78 9.24-2.94-.13-.98-.27-1.96-.4-2.95-2.25.49-4.51.8-6.81.95.43.75.86 1.5 1.3 2.26 1.68-2.32 5.11-2.8 7.48-1.34l.36-2.74c-4 .74-8.06.96-12.13.74.25.93.5 1.86.76 2.8a40.27 40.27 0 017.32-2.58c1.17-.29 2.36-.54 3.55-.72.93-.15 2.39-.5 3.18.21-.15-.35-.29-.71-.44-1.06.01-.22-.59.1-.78.16-.52.16-1.05.3-1.58.44-.91.23-1.82.44-2.74.63-2.09.42-4.2.71-6.33.86-4.16.29-8.34.09-12.44-.62.3.73.6 1.47.9 2.2 2.09-2.95 5.98-4.22 9.42-3.27V1.82a29.219 29.219 0 01-13.32 1.86c.13.98.27 1.96.4 2.95 4.82-1.19 9.74-1.61 14.7-1.3-.13-.98-.27-1.96-.4-2.95a26.29 26.29 0 01-15.8.05c.35.62.7 1.23 1.05 1.85.07-.23 3.53-.53 4.05-.59 1.68-.21 3.36-.35 5.05-.43.78-.04 1.57-.08 2.36-.08.1 0 .83.1.85.09.06-.21.11-.43.17-.64-.11.04-.23.08-.35.1-.7-.03-1.65.37-2.33.53-.38.09-.77.21-1.16.26-.16.01-.32.03-.48.04-.28-.05-.37.16-.27.6.87-1.11.11-2.93-1.46-2.51a44.888 44.888 0 00-10.96 4.59c-1.41.83-.45 3.42 1.16 2.74 3.03-1.27 6.06-2.55 9.08-3.82 1.73-.73 1.14-3.32-.8-2.89-2.95.65-5.92 1.07-8.93 1.25.25.93.5 1.86.76 2.8 2.47-1.56 5.11-2.63 7.97-3.23-.39-.91-.77-1.83-1.16-2.74-2.94 1.62-6.18 2.31-9.53 2.1.25.93.5 1.86.76 2.8 2.13-1.25 4.5-1.97 6.98-2.03.56-.01 1.11 0 1.67.05.06.01.81.12.81.13l-.24-.51c-.07.1-.13.21-.2.31-.94.76-1.49 1.37-2.75 1.61.27.96.53 1.93.8 2.89 1.53-.55 3.05-1.09 4.58-1.64.46-.17 3.3-1.45 3.54-1.21V2.73c-1.09 1.13-2.39 1.99-3.9 2.46-.74.23-1.5.38-2.27.42-.38.02-.78.03-1.16-.02a2 2 0 01-.59-.12c-.36.8-.36 1.08 0 .83.68-.06 1.72-.73 2.37-.97.85-.32 1.72-.62 2.59-.9 1.81-.58 3.65-1.06 5.51-1.47l-1.69-2.2c-.89 1.9-2.34 3.48-4.3 4.29l1.85 1.85c.29-.71.71-1.35 1.23-1.92l-2.12-2.12c-1.2 1.46-1.84 3-2.07 4.87-.14 1.13 1.38 1.86 2.26 1.3 1.2-.78 1.46-1.98.89-3.25-.25-.55-1.13-.9-1.69-.69-1.47.55-2.94 1.1-4.42 1.65-1.79.67-1.03 3.55.8 2.89 1.88-.67 3.76-2.38 2.45-4.49l-.54 2.05c1.08-.74 2.15-1.49 3.23-2.23 1.04-.72.94-2.36-.36-2.74-2.45-.72-4.96-.42-7.2.78-1.81.88-.3 3.47 1.4 2.56z" fill="#fff"/></svg>