<svg xmlns="http://www.w3.org/2000/svg" viewBox="0 0 432 432"><circle cx="216" cy="216" r="216" fill="#5d02d4"/><circle cx="216" cy="216" r="72" fill="#ffd500"/><g style="isolation:isolate"><path d="M198.22,215.93q-16.41-7.53-16.41-22.36a23.38,23.38,0,0,1,9.06-18.9q9.06-7.41,25.33-7.42,14.84,0,23.82,6.63a20.81,20.81,0,0,1,9,17.57q0,13.34-16.61,20.24,20.31,8.69,20.3,24.54,0,11.76-10.15,19.48t-27.38,7.73q-18.18,0-27.44-7.15t-9.27-17.94Q178.46,223,198.22,215.93Zm11.55,5.53a28.27,28.27,0,0,0-11,6.8q-4.17,4.35-4.17,9.27t5.23,9.36q5.22,4.31,16.1,4.31,9,0,14.25-3.52t5.23-9q0-4.73-4.34-8.27T209.77,221.46Zm11-14.63Q233.7,201.51,233.7,192a10.87,10.87,0,0,0-5.26-9.64,21.85,21.85,0,0,0-12.17-3.42A23.67,23.67,0,0,0,203.93,182a9.83,9.83,0,0,0-5.16,8.95,10.17,10.17,0,0,0,5.6,9.3Q210,203.48,220.78,206.83Z"/></g></svg>